HIERARCHY
ROOT Hips
{
     OFFSET 1.88212 96.90440 -13.34250
     CHANNELS 6 Xposition Yposition Zposition Zrotation Xrotation Yrotation
     JOINT Spine
     {
          OFFSET 0.00000 11.89050 0.00000
          CHANNELS 3 Zrotation Xrotation Yrotation
          JOINT Spine1
          {
               OFFSET -0.00000 25.65740 0.12766
               CHANNELS 3 Zrotation Xrotation Yrotation
               JOINT HEad
               {
                    OFFSET 0.00000 8.73416 0.01134
                    CHANNELS 3 Zrotation Xrotation Yrotation
                    End Site
                    {
                         OFFSET -0.29000 12.77420 2.51395
                    }
               }
               JOINT LeftShoulder1
               {
                    OFFSET 8.99000 -0.36225 -0.22000
                    CHANNELS 3 Zrotation Xrotation Yrotation
                    JOINT LeftArm
                    {
                         OFFSET 10.28270 -0.00338 0.32212
                         CHANNELS 3 Zrotation Xrotation Yrotation
                         JOINT LeftForeArm
                         {
                              OFFSET 32.76690 0.09914 -1.42434
                              CHANNELS 3 Zrotation Xrotation Yrotation
                              JOINT LeftHand
                              {
                                   OFFSET 27.56430 0.08536 1.02216
                                   CHANNELS 3 Zrotation Xrotation Yrotation
                                   End Site
                                   {
                                        OFFSET 16.74430 -0.60000 1.50291
                                   }
                              }
                         }
                    }
               }
               JOINT RightShoulder
               {
                    OFFSET -8.99000 -0.36225 -0.22000
                    CHANNELS 3 Zrotation Xrotation Yrotation
                    JOINT RightArm
                    {
                         OFFSET -10.28270 -0.00338 0.32212
                         CHANNELS 3 Zrotation Xrotation Yrotation
                         JOINT RightForeArm
                         {
                              OFFSET -32.89710 0.09914 -1.42434
                              CHANNELS 3 Zrotation Xrotation Yrotation
                              JOINT RightHand
                              {
                                   OFFSET -27.49210 0.08536 1.02216
                                   CHANNELS 3 Zrotation Xrotation Yrotation
                                   End Site
                                   {
                                        OFFSET -16.63120 -0.60000 1.50291
                                   }
                              }
                         }
                    }
               }
          }
     }
     JOINT LeftUpLeg
     {
          OFFSET 8.94580 -8.66707 0.10165
          CHANNELS 3 Zrotation Xrotation Yrotation
          JOINT LeftLeg
          {
               OFFSET 0.00000 -44.42270 1.37270
               CHANNELS 3 Zrotation Xrotation Yrotation
               JOINT LeftFoot
               {
                    OFFSET -0.25355 -42.09240 -1.46059
                    CHANNELS 3 Zrotation Xrotation Yrotation
                    JOINT LeftToes
                    {
                         OFFSET -0.04000 -4.41509 8.49910
                         CHANNELS 3 Zrotation Xrotation Yrotation
                         End Site
                         {
                              OFFSET 0.08000 -0.04745 9.77979
                         }
                    }
               }
          }
     }
     JOINT RightUpLeg
     {
          OFFSET -8.94580 -8.66707 0.10165
          CHANNELS 3 Zrotation Xrotation Yrotation
          JOINT RightLeg
          {
               OFFSET 0.00000 -44.42270 1.37270
               CHANNELS 3 Zrotation Xrotation Yrotation
               JOINT RightFoot
               {
                    OFFSET 0.25355 -42.09240 -1.46059
                    CHANNELS 3 Zrotation Xrotation Yrotation
                    JOINT RightToes
                    {
                         OFFSET 0.04000 -4.41509 8.49910
                         CHANNELS 3 Zrotation Xrotation Yrotation
                         End Site
                         {
                              OFFSET -0.08000 -0.13745 9.77979
                         }
                    }
               }
          }
     }
}
MOTION
Frames: 17
Frame Time: 0.01667
4.94265 95.76880 -14.16840 3.51661 -12.67040 18.89160 -6.57792 11.11820 0.83213 -4.19904 21.71970 -0.25973 -9.71152 13.80210 12.18690 -0.00000 -0.00000 0.00000 -148.92999 -55.98820 -119.16700 -10.54080 67.56330 -103.28800 16.77450 8.77396 -3.74066 17.22300 1.30052 4.11874 84.95250 -2.82794 74.56020 -16.01630 25.19820 110.18900 14.92720 11.71770 9.07235 17.14740 -3.44921 -17.60780 -19.94000 10.57090 55.26090 -2.98150 11.09280 0.40376 4.40267 -23.96390 -55.56180 -25.29410 17.38060 19.31730 37.83840 -2.74184 -38.25130 -33.75590 4.02989 3.45300 6.77315 -42.88880 11.43250 
4.36213 95.73590 -14.19600 3.73312 -12.58440 18.88470 -6.69104 11.07010 0.86002 -4.31955 21.61870 -0.21732 -9.74372 13.77410 12.19430 -0.00000 -0.00000 0.00000 -149.10800 -56.03840 -119.57900 -10.43560 67.58990 -103.56300 16.71480 8.78387 -3.69989 17.06250 1.27485 4.03132 85.00890 -2.72052 74.86890 -16.09380 25.21480 110.17300 15.02350 11.74150 9.16290 17.21090 -3.69698 -17.93250 -20.01300 10.66760 54.90600 -3.65545 10.93740 0.50966 4.92942 -22.19370 -54.35050 -25.12790 17.06520 19.27700 37.90160 -2.37201 -38.81400 -33.92970 3.65594 3.35666 6.99755 -43.36520 11.85320 
3.80641 95.72360 -14.21780 4.01491 -12.42470 18.91300 -6.83386 11.00190 0.86476 -4.47925 21.47760 -0.21682 -9.84533 13.82460 12.18560 -0.00000 -0.00000 0.00000 -149.03700 -56.07720 -119.81900 -10.55430 67.48270 -103.61400 16.69520 8.78018 -3.73636 16.90340 1.24799 3.93606 85.12250 -2.59232 75.18070 -16.07350 25.25500 110.13200 15.13160 11.76120 9.21343 17.18550 -4.02503 -18.29570 -20.13390 10.78490 54.55800 -4.33242 10.78930 0.61449 5.41722 -20.37670 -53.02280 -25.01330 16.63930 19.30220 37.93060 -1.91948 -39.49630 -34.06760 3.20115 3.23019 7.16370 -43.75630 12.12090 
3.27421 95.70980 -14.23890 4.38459 -12.18910 18.99530 -7.07628 10.92640 0.87188 -4.68257 21.31220 -0.24822 -9.98422 13.97360 12.14160 -0.00000 -0.00000 0.00000 -148.91200 -56.10280 -120.01300 -11.03570 67.38750 -103.37900 16.74450 8.76457 -3.82308 16.79810 1.21788 3.80825 85.23590 -2.45008 75.46460 -15.94790 25.31130 110.09300 15.13640 11.75610 9.17220 17.04280 -4.47521 -18.70280 -20.31580 11.00770 54.30740 -5.00709 10.68520 0.71890 5.78256 -18.84600 -51.77980 -24.94560 16.04060 19.31090 37.92310 -1.18204 -40.23030 -34.01360 2.56325 3.02649 7.23331 -43.89910 12.24750 
2.79052 95.74480 -14.26340 4.74561 -11.92870 19.16360 -7.24724 10.83780 0.85003 -4.89470 21.12920 -0.28710 -10.06530 14.19930 12.01180 -0.00000 -0.00000 0.00000 -148.86700 -56.09880 -120.23900 -11.85480 67.43200 -102.92100 16.88420 8.74099 -3.91928 16.76690 1.17329 3.58488 85.31960 -2.29623 75.70470 -15.66700 25.39740 110.05200 14.98580 11.71780 9.02299 16.90840 -4.91742 -19.12810 -20.53420 11.12330 54.17330 -5.51466 10.74770 0.80256 5.95839 -17.99750 -50.86410 -24.91930 15.57910 19.34950 37.89830 -0.71662 -40.78460 -33.86320 1.96410 2.82647 7.16863 -43.67400 12.20670 
2.35242 95.81550 -14.29600 5.10867 -11.64910 19.40120 -7.41358 10.74380 0.83772 -5.10597 20.93310 -0.30053 -9.97495 14.43230 11.73790 -0.00000 -0.00000 0.00000 -148.90100 -56.04240 -120.47000 -12.74610 67.64100 -102.46800 17.08570 8.71737 -3.98228 16.83360 1.10069 3.19202 85.35080 -2.12218 75.89870 -15.23370 25.51070 110.00700 14.72190 11.65620 8.79444 16.75950 -5.34838 -19.43930 -20.77980 11.21510 54.17960 -5.85123 10.97540 0.86667 5.91918 -18.09600 -50.46790 -24.92170 15.16480 19.34980 37.85560 -0.29984 -41.16270 -33.48130 1.35717 2.60573 6.97076 -43.03120 12.03580 
1.96709 95.92850 -14.33840 5.44808 -11.36800 19.67210 -7.57198 10.64590 0.83771 -5.30309 20.72850 -0.28446 -9.68234 14.59410 11.33570 -0.00000 -0.00000 0.00000 -148.96800 -55.93760 -120.68100 -13.37800 67.93510 -102.27200 17.27170 8.70370 -3.98267 16.98850 1.00170 2.64684 85.34170 -1.92787 76.06120 -14.75540 25.62520 109.98500 14.44110 11.59050 8.54043 16.61120 -5.72717 -19.53400 -21.03810 11.30260 54.32270 -6.05517 11.30650 0.91515 5.68915 -19.08010 -50.61270 -24.93790 14.83430 19.27370 37.76910 0.02309 -41.32430 -32.92010 0.83111 2.39926 6.70132 -42.08360 11.84420 
1.64276 96.07370 -14.38760 5.76822 -11.09770 19.93100 -7.74979 10.55200 0.83989 -5.48277 20.53020 -0.27739 -9.28761 14.65670 10.90250 -0.00000 -0.00000 0.00000 -149.05600 -55.83230 -120.90700 -13.64860 68.19470 -102.37500 17.38070 8.70338 -3.93006 17.13230 0.90226 2.10904 85.38550 -1.75191 76.21440 -14.37000 25.72650 110.01300 14.21650 11.53500 8.30816 16.44360 -6.04182 -19.42720 -21.32420 11.43850 54.60720 -6.21410 11.58900 0.95492 5.34587 -20.53360 -51.10700 -24.98390 14.60270 19.11960 37.62580 0.22866 -41.30140 -32.34860 0.47157 2.24685 6.43691 -41.11340 11.66850 
1.38277 96.21700 -14.44060 6.09057 -10.83460 20.14370 -7.99237 10.47010 0.83625 -5.64557 20.35390 -0.32098 -8.94224 14.64610 10.53470 -0.00000 -0.00000 0.00000 -149.21001 -55.77890 -121.21200 -13.72550 68.35450 -102.59500 17.40420 8.71260 -3.85499 17.15560 0.84088 1.79138 85.58080 -1.68064 76.37360 -14.14960 25.82580 110.09700 14.06130 11.49300 8.11503 16.21610 -6.33796 -19.20520 -21.66650 11.71680 55.04680 -6.37264 11.67570 0.98576 4.99079 -21.96440 -51.69020 -25.08450 14.40310 18.95150 37.46120 0.38970 -41.21690 -31.93650 0.25757 2.15262 6.20190 -40.35260 11.40080 
1.18699 96.32490 -14.49510 6.42895 -10.57390 20.29320 -8.32738 10.40630 0.83677 -5.78958 20.20920 -0.41276 -8.72848 14.59720 10.25300 -0.00000 -0.00000 0.00000 -149.41701 -55.78440 -121.57700 -13.78070 68.41500 -102.76300 17.37080 8.72636 -3.77691 17.05270 0.83802 1.79383 85.92030 -1.78280 76.54710 -14.07080 25.93590 110.21000 13.96830 11.46180 7.94996 15.89880 -6.64599 -18.91410 -22.03840 12.18010 55.63000 -6.47919 11.54120 0.99696 4.70114 -23.07370 -52.18640 -25.24770 14.13990 18.86500 37.32750 0.62397 -41.18080 -31.71310 0.06102 2.07891 5.95537 -39.77660 10.89320 
1.05643 96.38380 -14.54860 6.76286 -10.32530 20.37110 -8.72792 10.36440 0.86445 -5.90346 20.10390 -0.49876 -8.62830 14.51280 10.00350 -0.00000 -0.00000 0.00000 -149.50900 -55.81020 -121.81100 -13.73740 68.38520 -102.91700 17.37360 8.73060 -3.74627 16.90460 0.87347 2.00190 86.29940 -2.00791 76.74150 -14.03690 26.05240 110.29800 13.94180 11.43890 7.79262 15.50490 -6.94551 -18.57340 -22.35720 12.77890 56.30400 -6.48077 11.25990 0.98312 4.52456 -23.72520 -52.49280 -25.44440 13.77080 18.91070 37.24460 0.99817 -41.22800 -31.57200 -0.23024 1.98459 5.66707 -39.22350 10.15280 
0.99711 96.39850 -14.59650 7.03925 -10.10430 20.37800 -9.11390 10.34100 0.93007 -5.96704 20.03520 -0.52395 -8.58435 14.35620 9.74947 -0.00000 -0.00000 0.00000 -149.32800 -55.82040 -121.73000 -13.37270 68.29090 -103.23100 17.54120 8.70562 -3.83532 16.77680 0.90363 2.18148 86.61680 -2.19432 76.94940 -13.96640 26.14800 110.32400 13.97230 11.42270 7.64079 15.09280 -7.20059 -18.28570 -22.56380 13.39080 56.99770 -6.41255 10.92750 0.95541 4.48996 -23.85220 -52.53010 -25.62250 13.33460 19.04650 37.19160 1.47438 -41.32940 -31.41180 -0.60800 1.86489 5.38160 -38.65080 9.39797 
1.01851 96.38410 -14.63280 7.19965 -9.91503 20.32430 -9.38350 10.31940 1.00963 -5.96664 19.97630 -0.48793 -8.56480 14.10120 9.54304 -0.00000 -0.00000 0.00000 -149.00500 -55.82740 -121.43600 -12.69750 68.20310 -103.73100 17.86340 8.65612 -4.01104 16.68000 0.90556 2.20975 86.83350 -2.22273 77.13820 -13.88440 26.17960 110.29800 14.02580 11.41250 7.51786 14.73850 -7.38704 -18.22760 -22.66900 13.85950 57.62180 -6.38202 10.63180 0.93589 4.59563 -23.46910 -52.29380 -25.74500 12.92980 19.16380 37.13260 1.91193 -41.38790 -31.23820 -0.96759 1.75062 5.16621 -38.15750 8.84958 
1.12405 96.35270 -14.65500 7.21963 -9.75511 20.21880 -9.47861 10.28150 1.06818 -5.90971 19.89700 -0.42787 -8.56960 13.77440 9.46542 -0.00000 -0.00000 0.00000 -148.78999 -55.88360 -121.17300 -11.99880 68.15970 -104.24500 18.17040 8.61296 -4.14588 16.61880 0.88984 2.13906 86.95430 -2.11162 77.26980 -13.87720 26.13080 110.27300 14.06590 11.40750 7.44667 14.49050 -7.48990 -18.49330 -22.71770 14.08620 58.07060 -6.47538 10.42840 0.94058 4.79640 -22.71710 -51.91590 -25.81240 12.63730 19.19670 37.05320 2.17663 -41.31480 -31.11260 -1.23291 1.66719 5.03891 -37.82280 8.54829 
1.30474 96.30000 -14.66820 7.11818 -9.63429 20.06660 -9.42293 10.22730 1.09845 -5.80575 19.79520 -0.36906 -8.58579 13.41360 9.54334 -0.00000 -0.00000 0.00000 -148.74100 -56.02210 -121.01300 -11.50710 68.12200 -104.60700 18.33410 8.59327 -4.19421 16.60710 0.87205 2.04799 87.00030 -1.94563 77.32700 -13.96440 26.04440 110.27300 14.06950 11.40630 7.43490 14.35030 -7.50630 -19.00250 -22.73780 14.10720 58.28230 -6.65708 10.33080 0.96418 5.00910 -21.89220 -51.61080 -25.84060 12.45470 19.18900 36.97570 2.26617 -41.14990 -31.05370 -1.43101 1.60734 4.97449 -37.63760 8.40500 
1.54694 96.21630 -14.68330 6.93080 -9.57309 19.88310 -9.28009 10.17310 1.11286 -5.64480 19.69730 -0.32490 -8.56844 13.01730 9.75606 -0.00000 -0.00000 0.00000 -148.85899 -56.22650 -120.95000 -11.29560 68.09440 -104.73500 18.36600 8.58702 -4.21916 16.63090 0.85681 1.96394 87.00900 -1.78485 77.31680 -14.09570 25.98570 110.28700 14.02580 11.40810 7.48340 14.29060 -7.44049 -19.57580 -22.72230 14.03540 58.26340 -6.80166 10.30640 0.98556 5.16100 -21.29140 -51.50420 -25.83790 12.33240 19.23930 36.93550 2.26485 -41.02120 -31.03870 -1.62343 1.55182 4.94139 -37.55660 8.31807 
1.84447 96.10760 -14.70990 6.69365 -9.58660 19.69970 -9.09003 10.13810 1.11146 -5.42097 19.63840 -0.31973 -8.47123 12.55260 10.06910 -0.00000 -0.00000 0.00000 -149.23100 -56.45990 -121.06000 -11.41050 68.15040 -104.56400 18.33940 8.58011 -4.27704 16.64740 0.85044 1.92765 87.02480 -1.66870 77.26280 -14.25580 25.97220 110.31600 13.93680 11.40950 7.56624 14.27210 -7.28034 -20.07550 -22.64920 13.92740 58.05830 -6.82303 10.23560 0.98514 5.24959 -20.94070 -51.51180 -25.82060 12.25050 19.40750 36.94760 2.22340 -41.01210 -31.03810 -1.79610 1.50274 4.93269 -37.57240 8.26352 
